{
	"asset":{
		"generator":"Khronos glTF Blender I/O v4.0.44",
		"version":"2.0"
	},
	"scene":0,
	"scenes":[
		{
			"name":"Scene",
			"nodes":[
				0,
				1,
				3,
				4,
				6,
				7,
				10
			]
		}
	],
	"nodes":[
		{
			"name":"Lamp.001"
		},
		{
			"name":"Node_4"
		},
		{
			"name":"Guitar_04.obj.cleaner.materialmerger.gles.001",
			"translation":[
				0.15951919555664062,
				-0.005567470565438271,
				-0.0676911398768425
			]
		},
		{
			"children":[
				2
			],
			"name":"Sketchfab_model.001",
			"rotation":[
				-0.70710688829422,
				0,
				0,
				0.7071066498756409
			]
		},
		{
			"name":"Node_4.001"
		},
		{
			"name":"Lamp.004",
			"translation":[
				0,
				4.0531158447265625e-06,
				5.245208740234375e-06
			]
		},
		{
			"children":[
				5
			],
			"name":"Lamp.003",
			"rotation":[
				0.16905848681926727,
				0.27216285467147827,
				0.755890429019928,
				0.5709433555603027
			],
			"scale":[
				0.09941789507865906,
				0.09941624850034714,
				0.09942194819450378
			],
			"translation":[
				18.584548950195312,
				1.6481022834777832,
				-5.849586486816406
			]
		},
		{
			"name":"Node_4.002"
		},
		{
			"mesh":0,
			"name":"Object_4.001",
			"rotation":[
				0.1700390875339508,
				0,
				0,
				0.9854373335838318
			],
			"translation":[
				-29.88252830505371,
				-0.6916916370391846,
				3.89193058013916
			]
		},
		{
			"children":[
				8
			],
			"name":"Guitar_04.obj.cleaner.materialmerger.gles.002",
			"translation":[
				0.15951919555664062,
				-0.005567410960793495,
				-0.0676911398768425
			]
		},
		{
			"children":[
				9
			],
			"name":"Sketchfab_model.002",
			"rotation":[
				-0.70710688829422,
				0,
				0,
				0.7071066498756409
			],
			"translation":[
				29.72300910949707,
				0,
				-0.6972579956054688
			]
		}
	],
	"materials":[
		{
			"doubleSided":true,
			"name":"initialShadingGroup.002",
			"normalTexture":{
				"index":0
			},
			"pbrMetallicRoughness":{
				"baseColorTexture":{
					"index":1
				},
				"metallicRoughnessTexture":{
					"index":2
				}
			}
		}
	],
	"meshes":[
		{
			"name":"Object_2.002",
			"primitives":[
				{
					"attributes":{
						"POSITION":0,
						"NORMAL":1,
						"TEXCOORD_0":2
					},
					"indices":3,
					"material":0
				}
			]
		}
	],
	"textures":[
		{
			"sampler":0,
			"source":0
		},
		{
			"sampler":0,
			"source":1
		},
		{
			"sampler":0,
			"source":2
		}
	],
	"images":[
		{
			"mimeType":"image/png",
			"name":"initialShadingGroup_normal",
			"uri":"textures/initialShadingGroup_normal.png"
		},
		{
			"mimeType":"image/jpeg",
			"name":"initialShadingGroup_baseColor",
			"uri":"textures/initialShadingGroup_baseColor.jpg"
		},
		{
			"mimeType":"image/png",
			"name":"initialShadingGroup_metallicRoughness",
			"uri":"textures/initialShadingGroup_metallicRoughness.png"
		}
	],
	"accessors":[
		{
			"bufferView":0,
			"componentType":5126,
			"count":46842,
			"max":[
				2.107666015625,
				2.0797080993652344,
				3.764601230621338
			],
			"min":[
				-2.0473594665527344,
				-3.1686034202575684,
				-7.394538879394531
			],
			"type":"VEC3"
		},
		{
			"bufferView":1,
			"componentType":5126,
			"count":46842,
			"type":"VEC3"
		},
		{
			"bufferView":2,
			"componentType":5126,
			"count":46842,
			"type":"VEC2"
		},
		{
			"bufferView":3,
			"componentType":5123,
			"count":225372,
			"type":"SCALAR"
		}
	],
	"bufferViews":[
		{
			"buffer":0,
			"byteLength":562104,
			"byteOffset":0,
			"target":34962
		},
		{
			"buffer":0,
			"byteLength":562104,
			"byteOffset":562104,
			"target":34962
		},
		{
			"buffer":0,
			"byteLength":374736,
			"byteOffset":1124208,
			"target":34962
		},
		{
			"buffer":0,
			"byteLength":450744,
			"byteOffset":1498944,
			"target":34963
		}
	],
	"samplers":[
		{
			"magFilter":9729,
			"minFilter":9987
		}
	],
	"buffers":[
		{
			"byteLength":1949688,
			"uri":"guitar.bin"
		}
	]
}
