{
	"asset":{
		"generator":"Khronos glTF Blender I/O v4.0.44",
		"version":"2.0"
	},
	"scene":0,
	"scenes":[
		{
			"name":"Scene",
			"nodes":[
				0,
				1,
				2,
				3,
				5
			]
		}
	],
	"nodes":[
		{
			"name":"Node_4",
			"scale":[
				0.3739670515060425,
				0.3739670515060425,
				0.3739670515060425
			],
			"translation":[
				0.015732407569885254,
				0.20555579662322998,
				0.01021498441696167
			]
		},
		{
			"mesh":0,
			"name":"Cube",
			"scale":[
				0.7206643223762512,
				0.12063919007778168,
				8.022730827331543
			],
			"translation":[
				0.015732407569885254,
				-0.049791932106018066,
				0.01021498441696167
			]
		},
		{
			"mesh":1,
			"name":"Cylinder",
			"rotation":[
				0,
				0.6705033183097839,
				0,
				0.7419065237045288
			],
			"scale":[
				0.1566241979598999,
				0.25498783588409424,
				0.1566241979598999
			],
			"translation":[
				0.015732407569885254,
				3.209882974624634,
				0.01021498441696167
			]
		},
		{
			"mesh":2,
			"name":"Cylinder.001",
			"rotation":[
				-0.5,
				0.5,
				-0.5,
				0.5
			],
			"scale":[
				0.013127758167684078,
				0.18872511386871338,
				0.011930583976209164
			],
			"translation":[
				0.015732407569885254,
				3.4963529109954834,
				0.01021498441696167
			]
		},
		{
			"mesh":3,
			"name":"object_1",
			"rotation":[
				0,
				0.06444203853607178,
				0,
				0.9979214668273926
			],
			"scale":[
				0.07670464366674423,
				0.0503460094332695,
				0.07610192894935608
			],
			"translation":[
				0,
				1.5784844160079956,
				0
			]
		},
		{
			"children":[
				4
			],
			"name":"Node_3"
		}
	],
	"materials":[
		{
			"doubleSided":true,
			"name":"Material.002",
			"pbrMetallicRoughness":{
				"baseColorTexture":{
					"index":0
				},
				"roughnessFactor":0.589090883731842
			}
		},
		{
			"doubleSided":true,
			"name":"Material.003",
			"pbrMetallicRoughness":{
				"baseColorTexture":{
					"index":1
				},
				"metallicFactor":0,
				"roughnessFactor":0.5
			}
		},
		{
			"doubleSided":true,
			"name":"Material.001",
			"pbrMetallicRoughness":{
				"baseColorFactor":[
					0.42489108443260193,
					0.23498773574829102,
					0,
					1
				],
				"metallicFactor":0,
				"roughnessFactor":0.5
			}
		},
		{
			"name":"object_1.001",
			"pbrMetallicRoughness":{
				"baseColorTexture":{
					"index":2
				},
				"metallicFactor":0.5,
				"roughnessFactor":0.5
			}
		}
	],
	"meshes":[
		{
			"name":"Cube.001",
			"primitives":[
				{
					"attributes":{
						"POSITION":0,
						"NORMAL":1,
						"TEXCOORD_0":2
					},
					"indices":3,
					"material":0
				}
			]
		},
		{
			"name":"Cylinder.001",
			"primitives":[
				{
					"attributes":{
						"POSITION":4,
						"NORMAL":5,
						"TEXCOORD_0":6
					},
					"indices":7,
					"material":1
				}
			]
		},
		{
			"name":"Cylinder.002",
			"primitives":[
				{
					"attributes":{
						"POSITION":8,
						"NORMAL":9,
						"TEXCOORD_0":10
					},
					"indices":11,
					"material":2
				}
			]
		},
		{
			"name":"Mesh_1.001",
			"primitives":[
				{
					"attributes":{
						"POSITION":12,
						"NORMAL":13,
						"TEXCOORD_0":14
					},
					"indices":15,
					"material":3
				}
			]
		}
	],
	"textures":[
		{
			"sampler":0,
			"source":0
		},
		{
			"sampler":0,
			"source":0
		},
		{
			"sampler":0,
			"source":1
		}
	],
	"images":[
		{
			"mimeType":"image/jpeg",
			"name":"van_go",
			"uri":"textures/van_go.jpg"
		},
		{
			"mimeType":"image/png",
			"name":"RGB_ae2ca545b9014bd699c9a2c90ce49f12_Drum_BaseColor",
			"uri":"textures/RGB_ae2ca545b9014bd699c9a2c90ce49f12_Drum_BaseColor.png"
		}
	],
	"accessors":[
		{
			"bufferView":0,
			"componentType":5126,
			"count":24,
			"max":[
				1,
				1,
				1
			],
			"min":[
				-1,
				-1,
				-1
			],
			"type":"VEC3"
		},
		{
			"bufferView":1,
			"componentType":5126,
			"count":24,
			"type":"VEC3"
		},
		{
			"bufferView":2,
			"componentType":5126,
			"count":24,
			"type":"VEC2"
		},
		{
			"bufferView":3,
			"componentType":5123,
			"count":36,
			"type":"SCALAR"
		},
		{
			"bufferView":4,
			"componentType":5126,
			"count":300,
			"max":[
				1.0046958923339844,
				1.1965701580047607,
				1
			],
			"min":[
				-1.0046958923339844,
				-1,
				-1
			],
			"type":"VEC3"
		},
		{
			"bufferView":5,
			"componentType":5126,
			"count":300,
			"type":"VEC3"
		},
		{
			"bufferView":6,
			"componentType":5126,
			"count":300,
			"type":"VEC2"
		},
		{
			"bufferView":7,
			"componentType":5123,
			"count":648,
			"type":"SCALAR"
		},
		{
			"bufferView":8,
			"componentType":5126,
			"count":516,
			"max":[
				277.0003356933594,
				42.96133041381836,
				1.0000282526016235
			],
			"min":[
				-1,
				-43.090049743652344,
				-1.0000282526016235
			],
			"type":"VEC3"
		},
		{
			"bufferView":9,
			"componentType":5126,
			"count":516,
			"type":"VEC3"
		},
		{
			"bufferView":10,
			"componentType":5126,
			"count":516,
			"type":"VEC2"
		},
		{
			"bufferView":11,
			"componentType":5123,
			"count":756,
			"type":"SCALAR"
		},
		{
			"bufferView":12,
			"componentType":5126,
			"count":376314,
			"max":[
				22.015453338623047,
				27.059602737426758,
				21.71409034729004
			],
			"min":[
				-22.122135162353516,
				-30.196495056152344,
				-21.71424102783203
			],
			"type":"VEC3"
		},
		{
			"bufferView":13,
			"componentType":5126,
			"count":376314,
			"type":"VEC3"
		},
		{
			"bufferView":14,
			"componentType":5126,
			"count":376314,
			"type":"VEC2"
		},
		{
			"bufferView":15,
			"componentType":5125,
			"count":376314,
			"type":"SCALAR"
		}
	],
	"bufferViews":[
		{
			"buffer":0,
			"byteLength":288,
			"byteOffset":0,
			"target":34962
		},
		{
			"buffer":0,
			"byteLength":288,
			"byteOffset":288,
			"target":34962
		},
		{
			"buffer":0,
			"byteLength":192,
			"byteOffset":576,
			"target":34962
		},
		{
			"buffer":0,
			"byteLength":72,
			"byteOffset":768,
			"target":34963
		},
		{
			"buffer":0,
			"byteLength":3600,
			"byteOffset":840,
			"target":34962
		},
		{
			"buffer":0,
			"byteLength":3600,
			"byteOffset":4440,
			"target":34962
		},
		{
			"buffer":0,
			"byteLength":2400,
			"byteOffset":8040,
			"target":34962
		},
		{
			"buffer":0,
			"byteLength":1296,
			"byteOffset":10440,
			"target":34963
		},
		{
			"buffer":0,
			"byteLength":6192,
			"byteOffset":11736,
			"target":34962
		},
		{
			"buffer":0,
			"byteLength":6192,
			"byteOffset":17928,
			"target":34962
		},
		{
			"buffer":0,
			"byteLength":4128,
			"byteOffset":24120,
			"target":34962
		},
		{
			"buffer":0,
			"byteLength":1512,
			"byteOffset":28248,
			"target":34963
		},
		{
			"buffer":0,
			"byteLength":4515768,
			"byteOffset":29760,
			"target":34962
		},
		{
			"buffer":0,
			"byteLength":4515768,
			"byteOffset":4545528,
			"target":34962
		},
		{
			"buffer":0,
			"byteLength":3010512,
			"byteOffset":9061296,
			"target":34962
		},
		{
			"buffer":0,
			"byteLength":1505256,
			"byteOffset":12071808,
			"target":34963
		}
	],
	"samplers":[
		{
			"magFilter":9729,
			"minFilter":9987
		}
	],
	"buffers":[
		{
			"byteLength":13577064,
			"uri":"trong_quan.bin"
		}
	]
}
