{
	"asset":{
		"generator":"Khronos glTF Blender I/O v4.0.44",
		"version":"2.0"
	},
	"scene":0,
	"scenes":[
		{
			"name":"Scene",
			"nodes":[
				0,
				1,
				2,
				4
			]
		}
	],
	"nodes":[
		{
			"name":"Lamp.001",
			"scale":[
				3.5956246852874756,
				3.5956246852874756,
				3.5956246852874756
			]
		},
		{
			"name":"Node_4",
			"scale":[
				3.5956246852874756,
				3.5956246852874756,
				3.5956246852874756
			]
		},
		{
			"name":"Lamp.002"
		},
		{
			"mesh":0,
			"name":"object_0",
			"rotation":[
				-0.43427953124046326,
				-0.5653889179229736,
				-0.5085623860359192,
				0.4828053414821625
			],
			"scale":[
				1.0821895599365234,
				1.0821895599365234,
				1.0821895599365234
			]
		},
		{
			"children":[
				3
			],
			"name":"Node_4.001"
		}
	],
	"materials":[
		{
			"name":"object_0.001",
			"pbrMetallicRoughness":{
				"baseColorTexture":{
					"index":0
				},
				"metallicFactor":0.5,
				"roughnessFactor":0.5
			}
		}
	],
	"meshes":[
		{
			"name":"Mesh_0.002",
			"primitives":[
				{
					"attributes":{
						"POSITION":0,
						"NORMAL":1,
						"TEXCOORD_0":2
					},
					"indices":3,
					"material":0
				}
			]
		}
	],
	"textures":[
		{
			"sampler":0,
			"source":0
		}
	],
	"images":[
		{
			"mimeType":"image/png",
			"name":"RGB_2493f51d82254eb8ba4735890e5e75c8_erhu_col",
			"uri":"textures/RGB_2493f51d82254eb8ba4735890e5e75c8_erhu_col.png"
		}
	],
	"accessors":[
		{
			"bufferView":0,
			"componentType":5126,
			"count":166188,
			"max":[
				5.829819679260254,
				9.222389221191406,
				11.188608169555664
			],
			"min":[
				-3.4163997173309326,
				-4.943847179412842,
				-4.507853984832764
			],
			"type":"VEC3"
		},
		{
			"bufferView":1,
			"componentType":5126,
			"count":166188,
			"type":"VEC3"
		},
		{
			"bufferView":2,
			"componentType":5126,
			"count":166188,
			"type":"VEC2"
		},
		{
			"bufferView":3,
			"componentType":5125,
			"count":166188,
			"type":"SCALAR"
		}
	],
	"bufferViews":[
		{
			"buffer":0,
			"byteLength":1994256,
			"byteOffset":0,
			"target":34962
		},
		{
			"buffer":0,
			"byteLength":1994256,
			"byteOffset":1994256,
			"target":34962
		},
		{
			"buffer":0,
			"byteLength":1329504,
			"byteOffset":3988512,
			"target":34962
		},
		{
			"buffer":0,
			"byteLength":664752,
			"byteOffset":5318016,
			"target":34963
		}
	],
	"samplers":[
		{
			"magFilter":9729,
			"minFilter":9987
		}
	],
	"buffers":[
		{
			"byteLength":5982768,
			"uri":"dan_co.bin"
		}
	]
}
