{
	"asset":{
		"generator":"Khronos glTF Blender I/O v4.0.44",
		"version":"2.0"
	},
	"scene":0,
	"scenes":[
		{
			"name":"Scene",
			"nodes":[
				1
			]
		}
	],
	"nodes":[
		{
			"mesh":0,
			"name":"object_2",
			"rotation":[
				-0.2997274696826935,
				0.6688896417617798,
				0.6200429797172546,
				0.279815673828125
			],
			"scale":[
				0.35665690898895264,
				0.35665690898895264,
				0.35665690898895264
			]
		},
		{
			"children":[
				0
			],
			"name":"Node_4"
		}
	],
	"materials":[
		{
			"name":"object_2",
			"pbrMetallicRoughness":{
				"baseColorTexture":{
					"index":0
				},
				"metallicFactor":0.5,
				"roughnessFactor":0.5
			}
		}
	],
	"meshes":[
		{
			"name":"Mesh_2",
			"primitives":[
				{
					"attributes":{
						"POSITION":0,
						"NORMAL":1,
						"TEXCOORD_0":2
					},
					"indices":3,
					"material":0
				}
			]
		}
	],
	"textures":[
		{
			"sampler":0,
			"source":0
		}
	],
	"images":[
		{
			"mimeType":"image/png",
			"name":"RGB_e37ee8ef41a845d4a23c4db4517a5af5_pipa_col",
			"uri":"textures/RGB_e37ee8ef41a845d4a23c4db4517a5af5_pipa_col.png"
		}
	],
	"accessors":[
		{
			"bufferView":0,
			"componentType":5126,
			"count":28407,
			"max":[
				4.688150405883789,
				4.059429168701172,
				12.827943801879883
			],
			"min":[
				-2.83721923828125,
				-3.5551676750183105,
				-8.445720672607422
			],
			"type":"VEC3"
		},
		{
			"bufferView":1,
			"componentType":5126,
			"count":28407,
			"type":"VEC3"
		},
		{
			"bufferView":2,
			"componentType":5126,
			"count":28407,
			"type":"VEC2"
		},
		{
			"bufferView":3,
			"componentType":5123,
			"count":28407,
			"type":"SCALAR"
		}
	],
	"bufferViews":[
		{
			"buffer":0,
			"byteLength":340884,
			"byteOffset":0,
			"target":34962
		},
		{
			"buffer":0,
			"byteLength":340884,
			"byteOffset":340884,
			"target":34962
		},
		{
			"buffer":0,
			"byteLength":227256,
			"byteOffset":681768,
			"target":34962
		},
		{
			"buffer":0,
			"byteLength":56814,
			"byteOffset":909024,
			"target":34963
		}
	],
	"samplers":[
		{
			"magFilter":9729,
			"minFilter":9987
		}
	],
	"buffers":[
		{
			"byteLength":965840,
			"uri":"dan_ty_ba.bin"
		}
	]
}
