{
	"asset":{
		"generator":"Khronos glTF Blender I/O v4.0.44",
		"version":"2.0"
	},
	"extensionsUsed":[
		"KHR_materials_transmission",
		"KHR_materials_specular",
		"KHR_materials_ior"
	],
	"scene":0,
	"scenes":[
		{
			"name":"Scene",
			"nodes":[
				0,
				1,
				2,
				3,
				4
			]
		}
	],
	"nodes":[
		{
			"name":"Lamp.001",
			"scale":[
				3.5956246852874756,
				3.5956246852874756,
				3.5956246852874756
			]
		},
		{
			"name":"Node_4",
			"scale":[
				3.5956246852874756,
				3.5956246852874756,
				3.5956246852874756
			]
		},
		{
			"mesh":0,
			"name":"Laos_Bronze_Gong_4",
			"rotation":[
				0.7071065902709961,
				0,
				0,
				0.7071069478988647
			],
			"scale":[
				0.0179781224578619,
				0.03803649917244911,
				0.017978118732571602
			]
		},
		{
			"mesh":1,
			"name":"Line002",
			"rotation":[
				0.7071065902709961,
				0,
				0,
				0.7071069478988647
			],
			"scale":[
				0.0179781224578619,
				0.03803649917244911,
				0.017978118732571602
			]
		},
		{
			"mesh":2,
			"name":"Spring003",
			"rotation":[
				0.7071065902709961,
				0,
				0,
				0.7071069478988647
			],
			"scale":[
				0.0179781224578619,
				0.03803649917244911,
				0.017978118732571602
			]
		}
	],
	"materials":[
		{
			"doubleSided":true,
			"extensions":{
				"KHR_materials_transmission":{
					"transmissionFactor":1
				},
				"KHR_materials_specular":{
					"specularFactor":0.699999988079071
				},
				"KHR_materials_ior":{
					"ior":1
				}
			},
			"name":"wire_088088225.001",
			"pbrMetallicRoughness":{
				"baseColorTexture":{
					"index":0
				},
				"roughnessFactor":0.08518485724925995
			}
		},
		{
			"doubleSided":true,
			"extensions":{
				"KHR_materials_transmission":{
					"transmissionFactor":1
				},
				"KHR_materials_specular":{
					"specularFactor":0.699999988079071
				}
			},
			"name":"wire_184228153.001",
			"pbrMetallicRoughness":{
				"baseColorFactor":[
					0.893430769443512,
					0.7472966909408569,
					0.2709267735481262,
					1
				],
				"metallicFactor":0.9335347414016724,
				"roughnessFactor":0.24709638953208923
			}
		},
		{
			"doubleSided":true,
			"extensions":{
				"KHR_materials_transmission":{
					"transmissionFactor":1
				},
				"KHR_materials_specular":{
					"specularFactor":0.699999988079071
				}
			},
			"name":"wire_008008136.001",
			"pbrMetallicRoughness":{
				"baseColorFactor":[
					0.03139999881386757,
					0.03139999881386757,
					0.53329998254776,
					1
				],
				"metallicFactor":0,
				"roughnessFactor":0.8211145401000977
			}
		}
	],
	"meshes":[
		{
			"name":"Laos_Bronze_Gong_4.001",
			"primitives":[
				{
					"attributes":{
						"POSITION":0,
						"NORMAL":1,
						"TEXCOORD_0":2
					},
					"indices":3,
					"material":0
				}
			]
		},
		{
			"name":"Line002.001",
			"primitives":[
				{
					"attributes":{
						"POSITION":4,
						"NORMAL":5,
						"TEXCOORD_0":6
					},
					"indices":7,
					"material":1
				}
			]
		},
		{
			"name":"Spring003.001",
			"primitives":[
				{
					"attributes":{
						"POSITION":8,
						"NORMAL":9,
						"TEXCOORD_0":10
					},
					"indices":11,
					"material":2
				}
			]
		}
	],
	"textures":[
		{
			"sampler":0,
			"source":0
		}
	],
	"images":[
		{
			"mimeType":"image/jpeg",
			"name":"R",
			"uri":"textures/R.jpg"
		}
	],
	"accessors":[
		{
			"bufferView":0,
			"componentType":5126,
			"count":10642,
			"max":[
				193.42880249023438,
				64.89790344238281,
				195.37860107421875
			],
			"min":[
				-193.94479370117188,
				15.326600074768066,
				-192.94259643554688
			],
			"type":"VEC3"
		},
		{
			"bufferView":1,
			"componentType":5126,
			"count":10642,
			"type":"VEC3"
		},
		{
			"bufferView":2,
			"componentType":5126,
			"count":10642,
			"type":"VEC2"
		},
		{
			"bufferView":3,
			"componentType":5123,
			"count":63168,
			"type":"SCALAR"
		},
		{
			"bufferView":4,
			"componentType":5126,
			"count":886,
			"max":[
				69.14939880371094,
				29.37470054626465,
				-222.13949584960938
			],
			"min":[
				-69.14939880371094,
				25.480600357055664,
				-249.1945037841797
			],
			"type":"VEC3"
		},
		{
			"bufferView":5,
			"componentType":5126,
			"count":886,
			"type":"VEC3"
		},
		{
			"bufferView":6,
			"componentType":5126,
			"count":886,
			"type":"VEC2"
		},
		{
			"bufferView":7,
			"componentType":5123,
			"count":3804,
			"type":"SCALAR"
		},
		{
			"bufferView":8,
			"componentType":5126,
			"count":19752,
			"max":[
				52.24810028076172,
				31.351699829101562,
				-180.327392578125
			],
			"min":[
				-53.426700592041016,
				23.591899871826172,
				-227.81619262695312
			],
			"type":"VEC3"
		},
		{
			"bufferView":9,
			"componentType":5126,
			"count":19752,
			"type":"VEC3"
		},
		{
			"bufferView":10,
			"componentType":5126,
			"count":19752,
			"type":"VEC2"
		},
		{
			"bufferView":11,
			"componentType":5123,
			"count":99888,
			"type":"SCALAR"
		}
	],
	"bufferViews":[
		{
			"buffer":0,
			"byteLength":127704,
			"byteOffset":0,
			"target":34962
		},
		{
			"buffer":0,
			"byteLength":127704,
			"byteOffset":127704,
			"target":34962
		},
		{
			"buffer":0,
			"byteLength":85136,
			"byteOffset":255408,
			"target":34962
		},
		{
			"buffer":0,
			"byteLength":126336,
			"byteOffset":340544,
			"target":34963
		},
		{
			"buffer":0,
			"byteLength":10632,
			"byteOffset":466880,
			"target":34962
		},
		{
			"buffer":0,
			"byteLength":10632,
			"byteOffset":477512,
			"target":34962
		},
		{
			"buffer":0,
			"byteLength":7088,
			"byteOffset":488144,
			"target":34962
		},
		{
			"buffer":0,
			"byteLength":7608,
			"byteOffset":495232,
			"target":34963
		},
		{
			"buffer":0,
			"byteLength":237024,
			"byteOffset":502840,
			"target":34962
		},
		{
			"buffer":0,
			"byteLength":237024,
			"byteOffset":739864,
			"target":34962
		},
		{
			"buffer":0,
			"byteLength":158016,
			"byteOffset":976888,
			"target":34962
		},
		{
			"buffer":0,
			"byteLength":199776,
			"byteOffset":1134904,
			"target":34963
		}
	],
	"samplers":[
		{
			"magFilter":9729,
			"minFilter":9987
		}
	],
	"buffers":[
		{
			"byteLength":1334680,
			"uri":"cong_chieng.bin"
		}
	]
}
