{
	"asset":{
		"generator":"Khronos glTF Blender I/O v4.0.44",
		"version":"2.0"
	},
	"scene":0,
	"scenes":[
		{
			"name":"Scene",
			"nodes":[
				0
			]
		}
	],
	"nodes":[
		{
			"mesh":0,
			"name":"Cube",
			"scale":[
				1.070866584777832,
				1,
				1.3467961549758911
			]
		}
	],
	"materials":[
		{
			"doubleSided":true,
			"name":"Material.009",
			"pbrMetallicRoughness":{
				"baseColorTexture":{
					"index":0
				},
				"metallicFactor":0,
				"roughnessFactor":0.5
			}
		},
		{
			"doubleSided":true,
			"name":"Material.010",
			"pbrMetallicRoughness":{
				"baseColorTexture":{
					"index":1
				},
				"metallicFactor":0,
				"roughnessFactor":0.5
			}
		},
		{
			"doubleSided":true,
			"name":"Material.011",
			"pbrMetallicRoughness":{
				"baseColorFactor":[
					0.01520833931863308,
					0.006995455827564001,
					0.005181607790291309,
					1
				],
				"metallicFactor":0,
				"roughnessFactor":0.5
			}
		},
		{
			"doubleSided":true,
			"name":"Material.012",
			"pbrMetallicRoughness":{
				"baseColorFactor":[
					0.05448126420378685,
					0.02315366081893444,
					0.01849992573261261,
					1
				],
				"metallicFactor":0,
				"roughnessFactor":0.5
			}
		},
		{
			"doubleSided":true,
			"name":"Material.013",
			"pbrMetallicRoughness":{
				"baseColorFactor":[
					0.10398803651332855,
					0.004781017079949379,
					0,
					1
				],
				"metallicFactor":0,
				"roughnessFactor":0.5
			}
		},
		{
			"doubleSided":true,
			"name":"Material.014",
			"pbrMetallicRoughness":{
				"baseColorFactor":[
					0.2876706123352051,
					0.0424206368625164,
					0,
					1
				],
				"metallicFactor":0,
				"roughnessFactor":0.5
			}
		},
		{
			"doubleSided":true,
			"name":"Material.015",
			"pbrMetallicRoughness":{
				"metallicFactor":0,
				"roughnessFactor":0.5
			}
		},
		{
			"doubleSided":true,
			"name":"Material.016",
			"pbrMetallicRoughness":{
				"baseColorTexture":{
					"index":2
				},
				"metallicFactor":0,
				"roughnessFactor":0.5
			}
		}
	],
	"meshes":[
		{
			"name":"Cube.002",
			"primitives":[
				{
					"attributes":{
						"POSITION":0,
						"NORMAL":1,
						"TEXCOORD_0":2
					},
					"indices":3,
					"material":0
				},
				{
					"attributes":{
						"POSITION":4,
						"NORMAL":5,
						"TEXCOORD_0":6
					},
					"indices":7,
					"material":1
				},
				{
					"attributes":{
						"POSITION":8,
						"NORMAL":9,
						"TEXCOORD_0":10
					},
					"indices":11,
					"material":2
				},
				{
					"attributes":{
						"POSITION":12,
						"NORMAL":13,
						"TEXCOORD_0":14
					},
					"indices":15,
					"material":3
				},
				{
					"attributes":{
						"POSITION":16,
						"NORMAL":17,
						"TEXCOORD_0":18
					},
					"indices":19,
					"material":4
				},
				{
					"attributes":{
						"POSITION":20,
						"NORMAL":21,
						"TEXCOORD_0":22
					},
					"indices":23,
					"material":5
				},
				{
					"attributes":{
						"POSITION":24,
						"NORMAL":25,
						"TEXCOORD_0":26
					},
					"indices":27,
					"material":6
				},
				{
					"attributes":{
						"POSITION":28,
						"NORMAL":29,
						"TEXCOORD_0":30
					},
					"indices":31,
					"material":7
				}
			]
		}
	],
	"textures":[
		{
			"sampler":0,
			"source":0
		},
		{
			"sampler":1,
			"source":1
		},
		{
			"sampler":1,
			"source":1
		}
	],
	"images":[
		{
			"mimeType":"image/jpeg",
			"name":"OIP",
			"uri":"textures/OIP.jpg"
		},
		{
			"mimeType":"image/jpeg",
			"name":"OIP (1)",
			"uri":"textures/OIP%201.jpg"
		}
	],
	"accessors":[
		{
			"bufferView":0,
			"componentType":5126,
			"count":76,
			"max":[
				1.088120460510254,
				1.061549425125122,
				5.687923908233643
			],
			"min":[
				-1.000667691230774,
				-1.1134428977966309,
				-5.765863418579102
			],
			"type":"VEC3"
		},
		{
			"bufferView":1,
			"componentType":5126,
			"count":76,
			"type":"VEC3"
		},
		{
			"bufferView":2,
			"componentType":5126,
			"count":76,
			"type":"VEC2"
		},
		{
			"bufferView":3,
			"componentType":5123,
			"count":114,
			"type":"SCALAR"
		},
		{
			"bufferView":4,
			"componentType":5126,
			"count":2028,
			"max":[
				0.9144390821456909,
				2.3692030906677246,
				-4.22256326675415
			],
			"min":[
				-0.8106818795204163,
				0.5007359981536865,
				-6.197017669677734
			],
			"type":"VEC3"
		},
		{
			"bufferView":5,
			"componentType":5126,
			"count":2028,
			"type":"VEC3"
		},
		{
			"bufferView":6,
			"componentType":5126,
			"count":2028,
			"type":"VEC2"
		},
		{
			"bufferView":7,
			"componentType":5123,
			"count":2808,
			"type":"SCALAR"
		},
		{
			"bufferView":8,
			"componentType":5126,
			"count":286,
			"max":[
				0.08833856135606766,
				1.5220896005630493,
				-6.106415748596191
			],
			"min":[
				-0.050045765936374664,
				1.3685675859451294,
				-6.262404441833496
			],
			"type":"VEC3"
		},
		{
			"bufferView":9,
			"componentType":5126,
			"count":286,
			"type":"VEC3"
		},
		{
			"bufferView":10,
			"componentType":5126,
			"count":286,
			"type":"VEC2"
		},
		{
			"bufferView":11,
			"componentType":5123,
			"count":372,
			"type":"SCALAR"
		},
		{
			"bufferView":12,
			"componentType":5126,
			"count":322,
			"max":[
				0.2102614790201187,
				1.6402029991149902,
				-6.190860748291016
			],
			"min":[
				-0.12805388867855072,
				1.2784085273742676,
				-6.3383331298828125
			],
			"type":"VEC3"
		},
		{
			"bufferView":13,
			"componentType":5126,
			"count":322,
			"type":"VEC3"
		},
		{
			"bufferView":14,
			"componentType":5126,
			"count":322,
			"type":"VEC2"
		},
		{
			"bufferView":15,
			"componentType":5123,
			"count":372,
			"type":"SCALAR"
		},
		{
			"bufferView":16,
			"componentType":5126,
			"count":3870,
			"max":[
				0.23669464886188507,
				8.962846755981445,
				-4.950042247772217
			],
			"min":[
				-0.1566799134016037,
				-0.912717342376709,
				-6.181119918823242
			],
			"type":"VEC3"
		},
		{
			"bufferView":17,
			"componentType":5126,
			"count":3870,
			"type":"VEC3"
		},
		{
			"bufferView":18,
			"componentType":5126,
			"count":3870,
			"type":"VEC2"
		},
		{
			"bufferView":19,
			"componentType":5123,
			"count":5052,
			"type":"SCALAR"
		},
		{
			"bufferView":20,
			"componentType":5126,
			"count":2346,
			"max":[
				0.2749236524105072,
				1.8448383808135986,
				4.535243511199951
			],
			"min":[
				-0.2762617766857147,
				0.6369223594665527,
				4.096984386444092
			],
			"type":"VEC3"
		},
		{
			"bufferView":21,
			"componentType":5126,
			"count":2346,
			"type":"VEC3"
		},
		{
			"bufferView":22,
			"componentType":5126,
			"count":2346,
			"type":"VEC2"
		},
		{
			"bufferView":23,
			"componentType":5123,
			"count":3288,
			"type":"SCALAR"
		},
		{
			"bufferView":24,
			"componentType":5126,
			"count":319,
			"max":[
				0.008554388768970966,
				1.5706515312194824,
				4.536750316619873
			],
			"min":[
				-0.01756002940237522,
				1.2048544883728027,
				-5.823469161987305
			],
			"type":"VEC3"
		},
		{
			"bufferView":25,
			"componentType":5126,
			"count":319,
			"type":"VEC3"
		},
		{
			"bufferView":26,
			"componentType":5126,
			"count":319,
			"type":"VEC2"
		},
		{
			"bufferView":27,
			"componentType":5123,
			"count":372,
			"type":"SCALAR"
		},
		{
			"bufferView":28,
			"componentType":5126,
			"count":130,
			"max":[
				1.1187150478363037,
				2.567108154296875,
				-4.004586696624756
			],
			"min":[
				-0.8752906322479248,
				0.3738064765930176,
				-5.491862773895264
			],
			"type":"VEC3"
		},
		{
			"bufferView":29,
			"componentType":5126,
			"count":130,
			"type":"VEC3"
		},
		{
			"bufferView":30,
			"componentType":5126,
			"count":130,
			"type":"VEC2"
		},
		{
			"bufferView":31,
			"componentType":5123,
			"count":186,
			"type":"SCALAR"
		}
	],
	"bufferViews":[
		{
			"buffer":0,
			"byteLength":912,
			"byteOffset":0,
			"target":34962
		},
		{
			"buffer":0,
			"byteLength":912,
			"byteOffset":912,
			"target":34962
		},
		{
			"buffer":0,
			"byteLength":608,
			"byteOffset":1824,
			"target":34962
		},
		{
			"buffer":0,
			"byteLength":228,
			"byteOffset":2432,
			"target":34963
		},
		{
			"buffer":0,
			"byteLength":24336,
			"byteOffset":2660,
			"target":34962
		},
		{
			"buffer":0,
			"byteLength":24336,
			"byteOffset":26996,
			"target":34962
		},
		{
			"buffer":0,
			"byteLength":16224,
			"byteOffset":51332,
			"target":34962
		},
		{
			"buffer":0,
			"byteLength":5616,
			"byteOffset":67556,
			"target":34963
		},
		{
			"buffer":0,
			"byteLength":3432,
			"byteOffset":73172,
			"target":34962
		},
		{
			"buffer":0,
			"byteLength":3432,
			"byteOffset":76604,
			"target":34962
		},
		{
			"buffer":0,
			"byteLength":2288,
			"byteOffset":80036,
			"target":34962
		},
		{
			"buffer":0,
			"byteLength":744,
			"byteOffset":82324,
			"target":34963
		},
		{
			"buffer":0,
			"byteLength":3864,
			"byteOffset":83068,
			"target":34962
		},
		{
			"buffer":0,
			"byteLength":3864,
			"byteOffset":86932,
			"target":34962
		},
		{
			"buffer":0,
			"byteLength":2576,
			"byteOffset":90796,
			"target":34962
		},
		{
			"buffer":0,
			"byteLength":744,
			"byteOffset":93372,
			"target":34963
		},
		{
			"buffer":0,
			"byteLength":46440,
			"byteOffset":94116,
			"target":34962
		},
		{
			"buffer":0,
			"byteLength":46440,
			"byteOffset":140556,
			"target":34962
		},
		{
			"buffer":0,
			"byteLength":30960,
			"byteOffset":186996,
			"target":34962
		},
		{
			"buffer":0,
			"byteLength":10104,
			"byteOffset":217956,
			"target":34963
		},
		{
			"buffer":0,
			"byteLength":28152,
			"byteOffset":228060,
			"target":34962
		},
		{
			"buffer":0,
			"byteLength":28152,
			"byteOffset":256212,
			"target":34962
		},
		{
			"buffer":0,
			"byteLength":18768,
			"byteOffset":284364,
			"target":34962
		},
		{
			"buffer":0,
			"byteLength":6576,
			"byteOffset":303132,
			"target":34963
		},
		{
			"buffer":0,
			"byteLength":3828,
			"byteOffset":309708,
			"target":34962
		},
		{
			"buffer":0,
			"byteLength":3828,
			"byteOffset":313536,
			"target":34962
		},
		{
			"buffer":0,
			"byteLength":2552,
			"byteOffset":317364,
			"target":34962
		},
		{
			"buffer":0,
			"byteLength":744,
			"byteOffset":319916,
			"target":34963
		},
		{
			"buffer":0,
			"byteLength":1560,
			"byteOffset":320660,
			"target":34962
		},
		{
			"buffer":0,
			"byteLength":1560,
			"byteOffset":322220,
			"target":34962
		},
		{
			"buffer":0,
			"byteLength":1040,
			"byteOffset":323780,
			"target":34962
		},
		{
			"buffer":0,
			"byteLength":372,
			"byteOffset":324820,
			"target":34963
		}
	],
	"samplers":[
		{
			"magFilter":9729,
			"minFilter":9987,
			"wrapS":33071,
			"wrapT":33071
		},
		{
			"magFilter":9729,
			"minFilter":9987
		}
	],
	"buffers":[
		{
			"byteLength":325192,
			"uri":"dan_bau.bin"
		}
	]
}
